<?xml version="1.0" encoding="utf-8"?>
<svg version="1.1" xmlns:xlink="http://www.w3.org/1999/xlink" width="24px" height="26px" xmlns="http://www.w3.org/2000/svg">
  <g transform="matrix(1 0 0 1 -31 -246 )">
    <path d="M 6.66666666666667 8.27272727272727  L 6.66666666666667 12  L 17.3333333333333 12  L 17.3333333333333 8.27272727272727  C 17.3333333333333 6.96780303030303  16.8125 5.85369318181818  15.7708333333333 4.93039772727273  C 14.7291666666667 4.00710227272727  13.4722222222222 3.54545454545455  12 3.54545454545455  C 10.5277777777778 3.54545454545455  9.27083333333333 4.00710227272727  8.22916666666667 4.93039772727273  C 7.1875 5.85369318181818  6.66666666666667 6.96780303030303  6.66666666666667 8.27272727272727  Z M 23.4166666666667 12.3352272727273  C 23.8055555555556 12.6799242424242  24 13.0984848484848  24 13.5909090909091  L 24 24.2272727272727  C 24 24.719696969697  23.8055555555556 25.1382575757576  23.4166666666667 25.4829545454545  C 23.0277777777778 25.8276515151515  22.5555555555556 26  22 26  L 2 26  C 1.44444444444444 26  0.972222222222222 25.8276515151515  0.583333333333333 25.4829545454545  C 0.194444444444444 25.1382575757576  0 24.719696969697  0 24.2272727272727  L 0 13.5909090909091  C 0 13.0984848484848  0.194444444444444 12.6799242424242  0.583333333333333 12.3352272727273  C 0.972222222222222 11.9905303030303  1.44444444444444 11.8181818181818  2 11.8181818181818  L 2.66666666666667 11.8181818181818  L 2.66666666666667 8.27272727272727  C 2.66666666666667 6.00757575757576  3.58333333333333 4.0625  5.41666666666667 2.4375  C 7.25 0.8125  9.44444444444444 0  12 0  C 14.5555555555556 0  16.75 0.8125  18.5833333333333 2.4375  C 20.4166666666667 4.0625  21.3333333333333 6.00757575757576  21.3333333333333 8.27272727272727  L 21.3333333333333 11.8181818181818  L 22 11.8181818181818  C 22.5555555555556 11.8181818181818  23.0277777777778 11.9905303030303  23.4166666666667 12.3352272727273  Z " fill-rule="nonzero" fill="#1aa5ff" stroke="none" transform="matrix(1 0 0 1 31 246 )" />
  </g>
</svg>