<?xml version="1.0" encoding="utf-8"?>
<svg version="1.1" xmlns:xlink="http://www.w3.org/1999/xlink" width="50px" height="50px" xmlns="http://www.w3.org/2000/svg">
  <g transform="matrix(1 0 0 1 -178 -74 )">
    <path d="M 36.7838541666666 29.248046875  C 37.0442708333334 29.7580295138889  37.0876736111111 30.2842881944444  36.9140625 30.8268229166667  C 36.1111111111111 33.4526909722222  34.6137152777778 35.5685763888889  32.421875 37.1744791666667  C 30.2300347222222 38.7803819444445  27.7560763888889 39.5833333333333  25 39.5833333333333  C 22.2439236111111 39.5833333333333  19.7699652777778 38.7803819444445  17.578125 37.1744791666667  C 15.3862847222222 35.5685763888889  13.8888888888889 33.4526909722222  13.0859375 30.8268229166667  C 12.9123263888889 30.2842881944444  12.9557291666666 29.7580295138889  13.2161458333334 29.248046875  C 13.4765625 28.7380642361111  13.8888888888889 28.3962673611111  14.453125 28.22265625  C 14.9956597222222 28.0490451388889  15.5219184027778 28.0924479166667  16.0319010416666 28.3528645833333  C 16.5418836805555 28.61328125  16.8836805555555 29.0256076388889  17.0572916666666 29.58984375  C 17.5998263888889 31.3259548611111  18.603515625 32.7311197916667  20.068359375 33.8053385416667  C 21.533203125 34.8795572916667  23.1770833333334 35.4166666666667  25 35.4166666666667  C 26.8229166666666 35.4166666666667  28.466796875 34.8795572916667  29.931640625 33.8053385416667  C 31.396484375 32.7311197916667  32.4001736111111 31.3259548611111  32.9427083333334 29.58984375  C 33.1163194444445 29.0256076388889  33.4635416666666 28.61328125  33.984375 28.3528645833333  C 34.5052083333334 28.0924479166667  35.0368923611111 28.0490451388889  35.5794270833334 28.22265625  C 36.1219618055555 28.3962673611111  36.5234375 28.7380642361111  36.7838541666666 29.248046875  Z M 19.6126302083334 13.720703125  C 20.4264322916666 14.5345052083333  20.8333333333334 15.5164930555556  20.8333333333334 16.6666666666667  C 20.8333333333334 17.7572290656135  20.4675170417914 18.6965873973896  19.7358844587078 19.4847416619952  C 19.6958712119158 19.5278452473715  19.6547969214616 19.570463495205  19.6126302083334 19.6126302083333  C 18.798828125 20.4264322916667  17.8168402777778 20.8333333333333  16.6666666666666 20.8333333333333  C 15.5164930555555 20.8333333333333  14.5345052083334 20.4264322916667  13.720703125 19.6126302083333  C 12.9069010416666 18.798828125  12.5 17.8168402777778  12.5 16.6666666666667  C 12.5 15.5164930555556  12.9069010416666 14.5345052083333  13.720703125 13.720703125  C 14.5345052083334 12.9069010416667  15.5164930555555 12.5  16.6666666666666 12.5  C 17.8168402777778 12.5  18.798828125 12.9069010416667  19.6126302083334 13.720703125  Z M 36.279296875 13.720703125  C 37.0930989583334 14.5345052083333  37.5 15.5164930555556  37.5 16.6666666666667  C 37.5 17.8168402777778  37.0930989583334 18.798828125  36.279296875 19.6126302083333  C 35.4654947916666 20.4264322916667  34.4835069444445 20.8333333333333  33.3333333333334 20.8333333333333  C 32.1831597222222 20.8333333333333  31.201171875 20.4264322916667  30.3873697916666 19.6126302083333  C 30.2944159489559 19.5196763656226  30.2067707783731 19.4245282717658  30.124434279918 19.3271859267628  C 29.4859225377504 18.5723052667787  29.1666666666666 17.6854655134133  29.1666666666666 16.6666666666667  C 29.1666666666666 15.5164930555556  29.5735677083334 14.5345052083333  30.3873697916666 13.720703125  C 31.201171875 12.9069010416667  32.1831597222222 12.5  33.3333333333334 12.5  C 34.4835069444445 12.5  35.4654947916666 12.9069010416667  36.279296875 13.720703125  Z M 44.1731770833334 33.0891927083333  C 45.2799479166666 30.517578125  45.8333333333334 27.8211805555556  45.8333333333334 25  C 45.8333333333334 22.1788194444444  45.2799479166666 19.482421875  44.1731770833334 16.9108072916667  C 43.06640625 14.3391927083333  41.5852864583334 12.1256510416667  39.7298177083334 10.2701822916667  C 37.8743489583334 8.41471354166667  35.6608072916666 6.93359375  33.0891927083334 5.82682291666667  C 30.517578125 4.72005208333333  27.8211805555555 4.16666666666667  25 4.16666666666667  C 22.1788194444445 4.16666666666667  19.482421875 4.72005208333333  16.9108072916666 5.82682291666667  C 14.3391927083334 6.93359375  12.1256510416666 8.41471354166667  10.2701822916666 10.2701822916667  C 8.41471354166663 12.1256510416667  6.93359375 14.3391927083333  5.82682291666663 16.9108072916667  C 4.72005208333337 19.482421875  4.16666666666663 22.1788194444444  4.16666666666663 25  C 4.16666666666663 27.8211805555556  4.72005208333337 30.517578125  5.82682291666663 33.0891927083333  C 6.93359375 35.6608072916667  8.41471354166663 37.8743489583333  10.2701822916666 39.7298177083333  C 12.1256510416666 41.5852864583333  14.3391927083334 43.06640625  16.9108072916666 44.1731770833333  C 19.482421875 45.2799479166667  22.1788194444445 45.8333333333333  25 45.8333333333333  C 27.8211805555555 45.8333333333333  30.517578125 45.2799479166667  33.0891927083334 44.1731770833333  C 35.6608072916666 43.06640625  37.8743489583334 41.5852864583333  39.7298177083334 39.7298177083333  C 41.5852864583334 37.8743489583333  43.06640625 35.6608072916667  44.1731770833334 33.0891927083333  Z M 46.6471354166666 12.451171875  C 48.8823784722222 16.2814670138889  50 20.4644097222222  50 25  C 50 29.5355902777778  48.8823784722222 33.7185329861111  46.6471354166666 37.548828125  C 44.4118923611111 41.3791232638889  41.3791232638889 44.4118923611111  37.548828125 46.6471354166667  C 33.7185329861111 48.8823784722222  29.5355902777778 50  25 50  C 20.4644097222222 50  16.2814670138889 48.8823784722222  12.451171875 46.6471354166667  C 8.62087673611109 44.4118923611111  5.58810763888891 41.3791232638889  3.35286458333331 37.548828125  C 1.11762152777777 33.7185329861111  0 29.5355902777778  0 25  C 0 20.4644097222222  1.11762152777777 16.2814670138889  3.35286458333331 12.451171875  C 5.58810763888891 8.62087673611111  8.62087673611109 5.58810763888889  12.451171875 3.35286458333333  C 16.2814670138889 1.11762152777777  20.4644097222222 0  25 0  C 29.5355902777778 0  33.7185329861111 1.11762152777777  37.548828125 3.35286458333333  C 41.3791232638889 5.58810763888889  44.4118923611111 8.62087673611111  46.6471354166666 12.451171875  Z " fill-rule="nonzero" fill="#d9001b" stroke="none" transform="matrix(1 0 0 1 178 74 )" />
  </g>
</svg>